<svg xmlns="http://www.w3.org/2000/svg" viewBox="0 0 24 24">
  <path d="M2.814 3.5a.757.757 0 0 0-.719.969C2.833 7.108 4.814 14.37 4.814 16c0 2-1 2.5-1 2.5a1 1 0 1 0 0 2h11a1 1 0 1 0 0-2s.103-3.5 2.5-3.5c5.166 0 6-10.5 2.5-11-2.475-.354-3.5 1.5-3.5 1.5l.25-1.031a.775.775 0 0 0-.75-.969h-13Zm1 2h3v7l-1 .5-2-7.5Zm4 0h1v6l-1 .5V5.5Zm2 0h1V12l-1-.5v-6Zm2 0h3l-2 7.5-1-.5v-7Zm7.5 0c2 .5 1.113 8-2 8-3.5 0-3.5 2.5-3.5 2.5 0-2.5 2-7.5 2-7.5s1.5-3.5 3.5-3Zm-10 8c3 0 2.5 4.5 3.5 5h-7c1-.5.5-5 3.5-5Z"/>
</svg>
