<svg xmlns="http://www.w3.org/2000/svg" viewBox="0 0 24 24">
  <path d="M4 4s-2-.074-2 1.5 2 3 2 3c-.5 2 1.5 3 1.5 3-.5 2 1.5 3 1.5 3-.5 2 1.5 2.5 1.5 2.5H3a1 1 0 1 0 0 2h4a1 1 0 0 0 1 1h5a1 1 0 0 0 1-1h4a1 1 0 1 0 0-2h-5.5s2-.5 1.5-2.5c0 0 .553-.296 1-.875.657-.851 2.551-.809 3.5-1.125C20 12 22 10.59 22 8s-2.5-2.5-2.5-2.5H19C19 4 17 4 17 4H4Zm0 2h13l-1.094 2H5.094L4 6Zm14.75.5h.75S21 6.575 21 8c0 2-1.5 3-2.5 3.5-.895.447-3 .5-3 .5v-.5s2-1 1.5-3c0 0 1.209-.898 1.75-2ZM5.625 9h9.75l-1.094 2H6.72L5.625 9Zm1.656 3h6.438l-1.094 2h-4.25l-1.094-2Zm1.625 3h3.188L11 17h-1l-1.094-2Z"/>
</svg>
