<svg xmlns="http://www.w3.org/2000/svg" viewBox="0 0 24 24">
  <path d="M2.59 4.694c-.345-.175-.714.189-.551.543l6.458 13.294c.27.586.85.96 1.488.96h4a1.64 1.64 0 0 0 1.488-.96l6.492-13.294c.163-.354-.207-.718-.552-.543l-3.137 1.59-1.125-1.52a.636.636 0 0 0-.966-.07l-1.046 1.59-1.125-1.52a.636.636 0 0 0-.966-.07l-1.046 1.59-1.125-1.52a.636.636 0 0 0-.967-.07l-1.045 1.59-1.125-1.52a.636.636 0 0 0-.967-.07l-1.046 1.59zm11.395 12.678h-4L4.682 7.343l1.568 1.06 1.046-2.12 1.569 2.12 1.568-2.12 1.569 2.12 1.568-2.12 1.569 2.12 1.569-2.12 1.045 2.12 1.569-1.06z"/>
</svg>
