<svg xmlns="http://www.w3.org/2000/svg" viewBox="0 0 24 24">
  <path stroke="#000" stroke-width=".01" d="M7 2C6 2 6 3 6 3H5c-1 0-.594 1.031-.594 1.031L6 9v10c-1 0-2 0-2 1s1 1 2 1h13c1 0 2 0 2-1 0-.992-1-1-2-1l-.156-1.031C20.944 17.016 21 16.984 21 16v-4c0-1-1-1-1-1h-2s0-1-1-1h-6l2 2-1 7h-2V9l1-3h1l2 3h3l2-3h1v2s0 1 .5 1 .5-1 .5-1V6s.026-1-1-1h-8.656l.156-.969 4-.031s.5 0 .5-.5-.5-.531-.5-.531L10 3s0-1-1-1zM5.5 4h5l-.125.469L9.906 6 9 9H7zm8.5 8h1v7h-2zm2 0h1l1 7h-2zm2 0h2v4.469L18.719 17z"/>
</svg>
