<svg xmlns="http://www.w3.org/2000/svg" viewBox="0 0 24 24">
  <path d="M3.63 3.602C2.5 4.73 2.201 6.348 2.765 7.74c-.768.768-1.2 1.234-.11 2.323 1.09 1.09 1.488.636 2.256-.132A3.83 3.83 0 0 0 8.672 9.4l.952.95s-.075.988.885 1.948l6.327 6.327s.221 1.283.93 1.991l.685.686c.715.715 2.146-.686 2.146-.686s1.423-1.408.708-2.124l-.708-.707c-.708-.708-2.013-.908-2.013-.908-.96-.96-5.303-5.39-6.283-6.371-.983-.983-1.97-.863-1.97-.863l-.95-.951c.871-1.099 1.04-2.506.53-3.761.768-.768 1.245-1.145.155-2.235-.545-.545-.912-.742-1.26-.686-.35.057-.679.369-1.063.753a3.76 3.76 0 0 0-4.115.84Zm.947.993c.718-.706 2.392-1.148 3.565.025s.667 2.801-.025 3.514-2.341 1.199-3.514.026-.743-2.86-.026-3.565M4.338 6.01c0 .276.21.487.487.487a.515.515 0 0 0 .509-.51.477.477 0 0 0-.487-.486.515.515 0 0 0-.509.509m1.129-1.128c0 .276.21.486.486.486a.515.515 0 0 0 .51-.509.477.477 0 0 0-.487-.486.515.515 0 0 0-.51.509Zm1.613.09a.5.5 0 1 0 .708.709.5.5 0 0 0-.708-.708ZM4.824 7.453c0 .276.21.486.487.486a.515.515 0 0 0 .508-.508.477.477 0 0 0-.486-.487.515.515 0 0 0-.51.509Zm1.04-1.04c0 .276.21.487.486.487a.515.515 0 0 0 .51-.51.477.477 0 0 0-.488-.486.515.515 0 0 0-.508.509m.338 1.462c0 .277.21.487.487.487a.515.515 0 0 0 .508-.509.477.477 0 0 0-.486-.486.515.515 0 0 0-.51.508Zm1.15-1.15c0 .276.21.487.487.487s.487-.21.487-.487a.477.477 0 0 0-.487-.487.477.477 0 0 0-.487.487"/>
</svg>
