<svg xmlns="http://www.w3.org/2000/svg" viewBox="0 0 24 24">
  <path d="M3 2a1 1 0 0 0-.832 1.555l5.01 7.515a1 1 0 0 0-.237 1.758l.002.002v.002h.002l.012.01q.037.028.113.094c.1.09.24.227.38.414.277.37.55.915.55 1.65 0 .7-.365 1.495-.832 2.195a9 9 0 0 1-.64.805H4a1 1 0 0 0 0 2h4v1a1 1 0 0 0 1 1h6a1 1 0 0 0 1-1v-1h4a1 1 0 0 0 0-2h-.586l2.293-2.293a1 1 0 0 0-1.414-1.414l-3.215 3.215a9 9 0 0 1-.246-.313C16.365 16.495 16 15.698 16 15a2.7 2.7 0 0 1 .55-1.65 2.8 2.8 0 0 1 .493-.508l.012-.01.002-.002.002-.002h.002l.002-.002a1 1 0 0 0-.233-1.767l5.002-7.504A1 1 0 0 0 21 2Zm1.87 2h14.26l-4.665 7h-4.93Z"/>
</svg>
